<svg xmlns="http://www.w3.org/2000/svg" width="57" height="47" viewBox="0 0 57 47"><g><g><path d="M28.425 15.485c6.33 0 11.46 5.131 11.46 11.46 0 6.329-5.13 11.46-11.46 11.46-6.329 0-11.46-5.131-11.46-11.46 0-6.329 5.131-11.46 11.46-11.46zm28.208-4.407v31.734a3.536 3.536 0 0 1-3.526 3.526H3.743a3.536 3.536 0 0 1-3.526-3.526V11.078a3.536 3.536 0 0 1 3.526-3.526h12.341C16.966 4.026 17.847.5 21.374.5h14.103c3.526 0 4.408 3.526 5.29 7.052h12.34a3.536 3.536 0 0 1 3.526 3.526zM44.072 26.945c0-8.642-7.005-15.647-15.647-15.647-8.641 0-15.647 7.005-15.647 15.647s7.006 15.646 15.647 15.646c8.642 0 15.647-7.004 15.647-15.646zm9.035-12.341h-7.052v3.526h7.052z"/></g></g></svg>