<svg xmlns="http://www.w3.org/2000/svg" width="48" height="55" viewBox="0 0 48 55"><g><g><path d="M47.694 38.054c-.324.48-.855.75-1.462.75-.699 0-1.405-.389-1.767-.618l-.212-.162c-.04-.04-4.608-4.14-12.873-4.14-3.1 0-6.358.573-9.688 1.7a3.52 3.52 0 0 1-1.06.163c-1.302 0-2.328-.743-2.752-1.993l-4.057-11.99c-.167-.367-.459-1.216-.102-2.146.21-.547.709-1.279 1.904-1.684.22-.064 13.412-3.816 16.339-15.477.385-1.153 1.064-2.391 2.317-2.391.5 0 1.406.208 1.88 1.61l4.061 12.019a6.73 6.73 0 0 1 4.403 4.27 6.721 6.721 0 0 1-.909 6.06l4.058 11.994c.1.238.484 1.193-.08 2.035zm-3.646-3.8L40.36 23.36l-2.4-7.1-3.736-11.04C30.227 16.51 18.022 20.332 16.607 20.74l4.084 12.067c3.684-1.263 7.268-1.886 10.686-1.886 6 0 10.277 1.893 12.67 3.335zM18.66 48.786c4.338 4.4-1.086 5.34-1.086 5.34-1.765.6-2.082-1.256-2.082-1.256L11.79 41.906C11 39.076 9.243 39.6 9.243 39.6c-4.463 1.512-6.09-3.607-6.09-3.607L1.1 29.928c-1.49-4.405 2.997-6.144 2.997-6.144l5.765-1.952c1.86-.629 2.141 1.126 2.141 1.126l4.648 14.035c.39 1.174-.401 3.73-.401 3.73 0 3.64 3.67 5.42 2.41 8.062zm15.926-35.577c-.795 6.264-9.007 8.572-9.355 8.668a1.174 1.174 0 0 1-1.444-.822 1.17 1.17 0 0 1 .82-1.442c.074-.02 7.052-1.996 7.649-6.699a1.182 1.182 0 0 1 1.31-1.014 1.177 1.177 0 0 1 1.02 1.31z"/></g></g></svg>