<svg xmlns="http://www.w3.org/2000/svg" width="34" height="55" viewBox="0 0 34 55"><g><g><path d="M33.686 4.337V49.91c0 2.395-1.97 4.34-4.394 4.34H4.397c-2.424 0-4.394-1.945-4.394-4.34V4.337c0-2.394 1.97-4.34 4.394-4.34h24.895c2.425 0 4.394 1.945 4.394 4.34zM19.225 50.271c0-1.295-1.07-2.351-2.38-2.351-1.311 0-2.38 1.056-2.38 2.35 0 1.296 1.07 2.352 2.38 2.352 1.31 0 2.38-1.056 2.38-2.351zM30.024 8.678a.73.73 0 0 0-.732-.724H4.397a.73.73 0 0 0-.732.724V45.57c0 .397.33.722.732.722h24.895a.73.73 0 0 0 .732-.722zM15.38 38.516c0 .499-.41.905-.915.905a.889.889 0 0 1-.29-.051l-1.504 1.912a.895.895 0 0 1 .147.49c0 .498-.411.904-.916.904a.912.912 0 0 1-.915-.905c0-.077.012-.152.032-.223l-1.863-1.227a.918.918 0 0 1-.89.118L6.84 42.052c.075.132.122.28.122.443a.911.911 0 0 1-.916.904.91.91 0 0 1-.915-.904.91.91 0 0 1 1.255-.838l1.429-1.614a.89.89 0 0 1-.122-.442.91.91 0 0 1 .916-.904.91.91 0 0 1 .915.904.903.903 0 0 1-.032.224l1.863 1.226a.887.887 0 0 1 .837-.134l1.505-1.911a.896.896 0 0 1-.146-.49.91.91 0 0 1 .915-.904.91.91 0 0 1 .915.904zM9.89 23.145H6.593c0-1.997 1.64-3.617 3.66-3.617v3.255c0 .2-.163.362-.365.362zm.975 3.569c-2.032.323-3.819-1.009-4.197-2.846h3.587a.728.728 0 0 0 .732-.723v-3.543c1.86.372 3.208 2.137 2.88 4.146-.246 1.499-1.484 2.723-3.002 2.966zM8.79 13.018h2.197v4.34H8.79zm-2.928 2.17h2.195v2.17H5.862zm5.857-5.064h2.197v7.234h-2.197zm5.126 5.07v-.013a.72.72 0 0 1 .726-.716h9.525a.72.72 0 0 1 .725.716v.014a.72.72 0 0 1-.725.715h-9.525a.72.72 0 0 1-.726-.715zM9.75 36.2v-.77c-1.092-.125-1.694-.786-1.694-.786l.594-.812s.651.627 1.499.627c.456 0 .871-.234.871-.72 0-1.003-2.862-.903-2.862-2.7 0-.863.652-1.531 1.592-1.683v-.786h.73v.77c.98.084 1.49.611 1.49.611l-.475.878s-.575-.519-1.33-.519c-.508 0-.905.293-.905.71 0 .997 2.854.82 2.854 2.695 0 .854-.602 1.581-1.635 1.716v.769zm18.077-6.552v.014a.721.721 0 0 1-.725.717h-9.527a.721.721 0 0 1-.724-.717v-.014a.72.72 0 0 1 .724-.716h9.527c.4 0 .725.321.725.716zm0-5.064v.014a.72.72 0 0 1-.725.716h-9.527a.72.72 0 0 1-.724-.716v-.014a.72.72 0 0 1 .724-.716h9.527c.4 0 .725.32.725.716zM16.845 11.578v-.014a.72.72 0 0 1 .726-.716h9.525a.72.72 0 0 1 .725.716v.014a.72.72 0 0 1-.725.716h-9.525a.72.72 0 0 1-.726-.716zm10.983 30.368v.013a.721.721 0 0 1-.725.717h-9.527a.721.721 0 0 1-.724-.717v-.013c0-.396.325-.717.724-.717h9.527c.4 0 .725.321.725.717zm0-3.618v.015a.72.72 0 0 1-.725.716h-9.527a.72.72 0 0 1-.724-.716v-.015a.72.72 0 0 1 .724-.716h9.527c.4 0 .725.321.725.716zm0-5.064v.015a.72.72 0 0 1-.725.716h-9.527a.72.72 0 0 1-.724-.716v-.015a.72.72 0 0 1 .724-.715h9.527c.4 0 .725.32.725.715zm0-12.296v.014a.721.721 0 0 1-.725.716h-9.527a.72.72 0 0 1-.724-.716v-.014a.72.72 0 0 1 .724-.717h9.527c.4 0 .725.321.725.717z"/></g></g></svg>