<svg xmlns="http://www.w3.org/2000/svg" width="55" height="55" viewBox="0 0 55 55"><g><g><path fill="#222" d="M41 52.812c0 .933-.755 1.688-1.688 1.688H15.687a1.687 1.687 0 1 1 0-3.375h3.375a3.377 3.377 0 0 0 3.375-3.375v-5.063h10.125v5.063a3.377 3.377 0 0 0 3.375 3.375h3.375c.933 0 1.688.756 1.688 1.687zM54.5 3.664v32.484c0 1.747-1.323 3.164-2.953 3.164H3.453C1.823 39.312.5 37.895.5 36.148V3.664C.5 1.917 1.823.499 3.453.499h48.094c1.63 0 2.953 1.418 2.953 3.165zm-3.375.21H3.875v32.063h47.25z"/></g></g></svg>